<svg width="462" height="462" viewBox="0 0 462 462" fill="none" xmlns="http://www.w3.org/2000/svg">
<path d="M413.707 190.508H413.716C432.519 190.508 447.716 206.666 447.716 227.608C447.716 238.021 443.852 247.274 437.647 254.03C431.458 260.671 422.977 264.699 413.848 264.708L300.381 262.609C299.556 262.593 298.753 262.87 298.112 263.389L195.812 346.289C195.784 346.312 195.757 346.335 195.729 346.358C189.067 352.108 180.68 355.208 171.916 355.208H142.516C136.94 355.208 133.93 348.671 137.537 344.428L215.098 259.671C215.989 258.697 216.257 257.305 215.79 256.071C215.323 254.836 214.202 253.969 212.89 253.828L60.3305 237.432C53.9507 236.59 48.3047 232.263 45.6628 225.701C45.6409 225.646 45.6176 225.593 45.593 225.539L14.993 159.339L14.9902 159.333C10.1737 148.966 17.7604 137.108 29.216 137.108C31.6354 137.108 33.9119 137.608 35.9014 138.563C38.001 139.571 39.8724 140.971 41.3071 142.724L41.3221 142.743L69.833 177.114C74.5691 185.215 82.8297 189.907 91.7121 189.908C91.7134 189.908 91.7147 189.908 91.716 189.908L209.31 190.108H209.312L300.707 190.208L300.712 190.208L413.707 190.508Z" fill="#6C63FF" stroke="black" stroke-width="7" stroke-linejoin="round"/>
<path d="M294.84 189.69L214.662 189.602L162.886 123.06C162.884 123.059 162.883 123.057 162.882 123.056C159.551 118.738 162.648 112.5 168.016 112.5H188.116C196.599 112.5 204.908 115.514 211.379 120.892L211.39 120.901L294.84 189.69Z" fill="#6C63FF" stroke="black" stroke-width="7"/>
</svg>
