<svg width="1366" height="768" viewBox="0 0 1366 768" fill="none" xmlns="http://www.w3.org/2000/svg">
<g clip-path="url(#clip0)">
<rect width="1366" height="768" fill="white"/>
<path d="M0.500305 320.53V54.7567C0.500305 30.9625 -24.9487 15.8266 -45.8564 27.1859C-56.3534 32.889 -62.7012 44.058 -62.2298 55.9949L-35.6414 729.283C-33.5058 783.361 5.24883 829.98 56.9338 846.034C74.3116 851.431 94.4069 857.92 117.367 865.686C135.187 871.712 151.593 882.29 164.045 896.39C288.51 1037.33 73.9143 897.871 466.417 775.019C483.574 769.649 503.046 768.828 520.774 771.808C990.027 850.686 331.306 611.075 179 570C79.8688 543.265 58.8288 490.494 41.0507 447.781C24.2912 407.514 0.500305 364.145 0.500305 320.53Z" fill="#6C63FF"/>
</g>
<defs>
<clipPath id="clip0">
<rect width="1366" height="768" fill="white"/>
</clipPath>
</defs>
</svg>
