<svg width="493" height="170" viewBox="0 0 493 170" fill="none" xmlns="http://www.w3.org/2000/svg">
<g clip-path="url(#clip0)">
<path opacity="0.4" d="M493 170L493 15.324C460.133 4.46829 427.267 2.95329 394.4 10.779C361.533 18.6047 328.667 28.3689 295.8 40.0717C262.933 51.7745 230.067 57.1105 197.2 56.0797C164.333 55.049 131.467 59.7816 98.6 70.2774C65.7333 80.7733 32.8667 92.52 -4.58956e-06 105.517V170L493 170Z" fill="url(#paint0_linear)"/>
<path opacity="0.4" d="M493 170L493 8.46041e-06C460.133 21.5713 427.267 34.0715 394.4 37.5008C361.533 40.93 328.667 40.3902 295.8 35.8812C262.933 31.3723 230.067 36.3379 197.2 50.7781C164.333 65.2183 131.467 72.6932 98.6 73.2029C65.7333 73.7126 32.8667 84.5423 -4.58956e-06 105.692V170L493 170Z" fill="url(#paint1_linear)"/>
<path opacity="0.4" d="M493 170L493 16.7185C460.133 9.66324 427.267 8.5503 394.4 13.3796C361.533 18.209 328.667 28.8118 295.8 45.1881C262.933 61.5644 230.067 64.2906 197.2 53.3667C164.333 42.4428 131.467 49.2425 98.6 73.7656C65.7333 98.2888 32.8667 102.186 -4.58956e-06 85.4585V170L493 170Z" fill="url(#paint2_linear)"/>
<path opacity="0.4" d="M493 170L493 4.42196C460.133 13.7561 427.267 20.472 394.4 24.5695C361.533 28.667 328.667 33.0443 295.8 37.7014C262.933 42.3585 230.067 47.8843 197.2 54.2789C164.333 60.6735 131.467 68.365 98.6 77.3533C65.7333 86.3416 32.8667 87.5235 -4.58956e-06 80.8989V170L493 170Z" fill="url(#paint3_linear)"/>
<path opacity="0.4" d="M493 170L493 8.15816C460.133 14.3082 427.267 21.3135 394.4 29.1742C361.533 37.0348 328.667 42.2196 295.8 44.7285C262.933 47.2374 230.067 49.7023 197.2 52.123C164.333 54.5437 131.467 60.9272 98.6 71.2734C65.7333 81.6196 32.8667 85.6598 -4.58956e-06 83.3939V170L493 170Z" fill="url(#paint4_linear)"/>
</g>
<defs>
<linearGradient id="paint0_linear" x1="493" y1="170" x2="0" y2="170" gradientUnits="userSpaceOnUse">
<stop stop-color="#6C63FF" stop-opacity="0.42"/>
<stop offset="1" stop-color="#463AFF" stop-opacity="0.53"/>
</linearGradient>
<linearGradient id="paint1_linear" x1="493" y1="170" x2="0" y2="170" gradientUnits="userSpaceOnUse">
<stop stop-color="#6C63FF" stop-opacity="0.42"/>
<stop offset="1" stop-color="#463AFF" stop-opacity="0.53"/>
</linearGradient>
<linearGradient id="paint2_linear" x1="493" y1="170" x2="0" y2="170" gradientUnits="userSpaceOnUse">
<stop stop-color="#6C63FF" stop-opacity="0.42"/>
<stop offset="1" stop-color="#463AFF" stop-opacity="0.53"/>
</linearGradient>
<linearGradient id="paint3_linear" x1="493" y1="170" x2="0" y2="170" gradientUnits="userSpaceOnUse">
<stop stop-color="#6C63FF" stop-opacity="0.42"/>
<stop offset="1" stop-color="#463AFF" stop-opacity="0.53"/>
</linearGradient>
<linearGradient id="paint4_linear" x1="493" y1="170" x2="0" y2="170" gradientUnits="userSpaceOnUse">
<stop stop-color="#6C63FF" stop-opacity="0.42"/>
<stop offset="1" stop-color="#463AFF" stop-opacity="0.53"/>
</linearGradient>
<clipPath id="clip0">
<rect width="493" height="170" fill="white" transform="translate(493 170) rotate(-180)"/>
</clipPath>
</defs>
</svg>
