<svg width="481" height="481" viewBox="0 0 481 481" fill="none" xmlns="http://www.w3.org/2000/svg">
<path d="M224.5 9.2376C234.401 3.52135 246.599 3.52136 256.5 9.2376L432.779 111.012C442.68 116.729 448.779 127.293 448.779 138.725V342.275C448.779 353.707 442.68 364.271 432.779 369.988L256.5 471.762C246.599 477.479 234.401 477.479 224.5 471.762L48.2209 369.988C38.32 364.271 32.2209 353.707 32.2209 342.275V138.725C32.2209 127.293 38.3201 116.729 48.2209 111.012L224.5 9.2376Z" fill="#6C63FF"/>
<path d="M143.416 141.4H242.776C265.24 141.4 285.016 145.528 302.104 153.784C319.384 161.848 332.728 173.464 342.136 188.632C351.736 203.8 356.536 221.656 356.536 242.2C356.536 262.744 351.736 280.6 342.136 295.768C332.728 310.936 319.384 322.648 302.104 330.904C285.016 338.968 265.24 343 242.776 343H143.416V141.4ZM239.896 290.008C254.488 290.008 266.104 285.88 274.744 277.624C283.576 269.176 287.992 257.368 287.992 242.2C287.992 227.032 283.576 215.32 274.744 207.064C266.104 198.616 254.488 194.392 239.896 194.392H211.384V290.008H239.896Z" fill="white"/>
<circle cx="269.5" cy="211.5" r="28.5" fill="white"/>
</svg>
