<svg width="156" height="96" viewBox="0 0 156 96" fill="none" xmlns="http://www.w3.org/2000/svg">
<path d="M156 67.2789H0V96H156V67.2789Z" fill="url(#paint0_linear)"/>
<path d="M154.86 68.2195H0.910675V94.4734H154.86V68.2195Z" fill="white"/>
<path d="M99.8593 73.5779H10.3665V89.2023H99.8593V73.5779Z" fill="#F5F5F5"/>
<path d="M134.575 74.5754C133.482 73.4428 132.086 72.6443 130.553 72.2739C129.02 71.9035 127.412 71.9765 125.92 72.4843C124.427 72.9922 123.11 73.9137 122.125 75.1408C121.14 76.3678 120.527 77.8492 120.359 79.4111C120.19 80.9729 120.473 82.5501 121.174 83.9575C121.874 85.3648 122.964 86.5438 124.315 87.3558C125.665 88.1678 127.22 88.5792 128.798 88.5415C130.375 88.5038 131.909 88.0186 133.218 87.143L139.209 93.3476C139.245 93.3857 139.289 93.4162 139.338 93.4374C139.386 93.4586 139.439 93.47 139.492 93.471C139.545 93.472 139.597 93.4626 139.647 93.4432C139.696 93.4239 139.741 93.395 139.779 93.3582L141.272 91.9331C141.31 91.8966 141.34 91.8529 141.362 91.8045C141.383 91.7561 141.395 91.704 141.396 91.6512C141.397 91.5984 141.387 91.5459 141.368 91.4968C141.348 91.4477 141.319 91.4028 141.282 91.3649L135.292 85.1604C136.441 83.5936 137 81.6737 136.868 79.7379C136.737 77.8021 135.925 75.9742 134.575 74.5754V74.5754ZM132.709 84.5511C131.863 85.36 130.796 85.9012 129.642 86.1062C128.488 86.3113 127.299 86.1711 126.225 85.7033C125.151 85.2354 124.24 84.4611 123.608 83.478C122.976 82.495 122.651 81.3474 122.674 80.1805C122.697 79.0135 123.067 77.8796 123.738 76.922C124.408 75.9644 125.348 75.2262 126.44 74.8007C127.532 74.3753 128.725 74.2816 129.871 74.5316C131.016 74.7817 132.061 75.3641 132.873 76.2054C133.962 77.3336 134.556 78.8461 134.525 80.4104C134.495 81.9747 133.841 83.4628 132.709 84.5476V84.5511Z" fill="url(#paint1_linear)"/>
<path d="M124.21 78.653C123.543 78.653 123.543 79.6844 124.21 79.6844C124.877 79.6844 124.875 78.653 124.21 78.653Z" fill="url(#paint2_linear)"/>
<path d="M128.856 75.3485C128.011 75.3234 127.173 75.513 126.422 75.8994C125.671 76.2859 125.031 76.8565 124.562 77.5574C124.28 77.9992 125.083 78.3893 125.366 77.9493C126.081 76.8288 127.45 76.1181 128.926 76.1555C129.672 76.1811 130.4 76.3896 131.046 76.7625C131.692 77.1354 132.235 77.6611 132.628 78.2931C132.911 78.7581 133.653 78.3359 133.371 77.8745C132.467 76.396 130.71 75.3913 128.856 75.3485Z" fill="url(#paint3_linear)"/>
<path d="M134.575 73.6687C133.482 72.536 132.086 71.7376 130.553 71.3672C129.02 70.9967 127.412 71.0697 125.92 71.5776C124.427 72.0854 123.11 73.007 122.125 74.234C121.14 75.461 120.527 76.9425 120.359 78.5043C120.19 80.0661 120.473 81.6434 121.174 83.0507C121.874 84.4581 122.964 85.6371 124.315 86.4491C125.665 87.2611 127.22 87.6724 128.798 87.6347C130.375 87.597 131.909 87.1119 133.218 86.2363L139.209 92.4408C139.245 92.4789 139.289 92.5095 139.338 92.5307C139.386 92.5519 139.439 92.5633 139.492 92.5643C139.545 92.5653 139.597 92.5558 139.647 92.5365C139.696 92.5171 139.741 92.4882 139.779 92.4515L141.272 91.0264C141.31 90.9899 141.34 90.9462 141.362 90.8978C141.383 90.8494 141.395 90.7973 141.396 90.7445C141.397 90.6917 141.387 90.6392 141.368 90.5901C141.348 90.5409 141.319 90.4961 141.282 90.4581L135.294 84.2501C136.442 82.6834 136.999 80.7641 136.868 78.8291C136.736 76.8941 135.924 75.067 134.575 73.6687V73.6687ZM132.709 83.6444C131.863 84.4532 130.796 84.9944 129.642 85.1995C128.488 85.4046 127.299 85.2643 126.225 84.7965C125.151 84.3287 124.24 83.5543 123.608 82.5713C122.976 81.5882 122.651 80.4407 122.674 79.2737C122.697 78.1068 123.067 76.9728 123.738 76.0152C124.408 75.0577 125.348 74.3195 126.44 73.894C127.532 73.4685 128.725 73.3749 129.871 73.6249C131.016 73.8749 132.061 74.4574 132.873 75.2987C133.962 76.4268 134.556 77.9393 134.525 79.5037C134.495 81.068 133.841 82.5561 132.709 83.6408V83.6444Z" fill="#6C63FF"/>
<path d="M124.21 77.748C123.543 77.748 123.543 78.7795 124.21 78.7795C124.877 78.7795 124.875 77.748 124.21 77.748Z" fill="#6C63FF"/>
<path d="M128.856 74.4418C128.011 74.4167 127.173 74.6063 126.422 74.9928C125.671 75.3792 125.031 75.9498 124.562 76.6508C124.28 77.0925 125.083 77.4826 125.366 77.0426C126.081 75.9222 127.45 75.2114 128.926 75.2488C129.672 75.2744 130.4 75.483 131.046 75.8558C131.692 76.2287 132.235 76.7545 132.628 77.3865C132.911 77.8514 133.653 77.4292 133.371 76.9678C132.467 75.4893 130.71 74.4828 128.856 74.4418Z" fill="#6C63FF"/>
<path d="M81.9675 11.4088H68.9155V16.7957H76.43C75.7304 20.2177 72.8015 22.1826 68.9155 22.1826C66.7416 22.1508 64.6677 21.2687 63.1417 19.7269C61.6158 18.1851 60.7604 16.1074 60.7604 13.9428C60.7604 11.7783 61.6158 9.70062 63.1417 8.15883C64.6677 6.61704 66.7416 5.73492 68.9155 5.7031C70.7966 5.70085 72.6198 6.35086 74.0719 7.54148L78.1458 3.48529C76.4451 1.99759 74.4073 0.942825 72.2072 0.411476C70.0071 -0.119872 67.7104 -0.11195 65.514 0.434562C63.3177 0.981074 61.2873 2.04986 59.5969 3.54926C57.9066 5.04866 56.6067 6.93393 55.8089 9.04334C55.0111 11.1528 54.7391 13.4234 55.0162 15.6604C55.2934 17.8975 56.1114 20.0343 57.4001 21.8874C58.6889 23.7406 60.4099 25.2549 62.4155 26.3004C64.4212 27.3459 66.6516 27.8914 68.9155 27.8901C75.9183 27.8901 82.2842 22.8185 82.2842 13.9455C82.2731 13.0909 82.1669 12.2402 81.9675 11.4088V11.4088Z" fill="url(#paint4_linear)"/>
<path d="M55.2426 20.9988V6.88855L64.5087 13.9428L55.2426 20.9988Z" fill="#FBBC05"/>
<path d="M55.2426 6.88857L64.5087 13.9428L68.325 10.633L81.3985 8.51675V0.919189H55.2426V6.88857Z" fill="#EA4335"/>
<path d="M55.2426 20.9988L71.5956 8.51675L75.9022 9.05116L81.3985 0.919189V26.9682H55.2426V20.9988Z" fill="#34A853"/>
<path d="M81.3985 26.9682L64.5016 13.9428L62.3206 12.3146L81.3985 6.88855V26.9682Z" fill="#4285F4"/>
<path d="M38.4351 33.0944C46.0337 33.0944 51.8396 38.6932 51.8396 46.0236C51.8396 53.3539 46.0337 58.9563 38.4351 58.9563C30.8364 58.9563 25.0395 53.3557 25.0395 46.0236C25.0395 38.6914 30.8364 33.0944 38.4351 33.0944Z" fill="url(#paint5_linear)"/>
<path d="M37.859 41.5862C37.8894 41.1373 37.9234 40.6955 37.986 40.2448H27.7877V41.5862C28.8129 41.6503 29.8077 41.7465 30.8293 41.8089C32.7527 44.1389 34.676 46.4707 36.6316 48.831V52.4526C35.542 52.5488 34.4506 52.6129 33.361 52.7091V53.8777H43.4305V52.702C42.3408 52.636 41.2495 52.6058 40.1598 52.5737C40.192 51.2982 40.2243 49.9889 40.2565 48.7117C42.1476 47.0514 44.0137 45.3912 45.8691 43.7238C46.8299 43.6597 47.7925 43.5974 48.7855 43.5012V41.9425C45.9317 41.9745 43.1102 42.0066 40.2565 42.0689V43.38C41.3139 43.4442 42.3731 43.4744 43.4305 43.5065C42.0528 44.6876 40.6715 45.8365 39.2939 47.0194C37.8822 45.295 36.4724 43.5404 35.0607 41.8142C35.9982 41.7162 36.9268 41.6539 37.859 41.5862Z" fill="url(#paint6_linear)"/>
<path d="M61.1809 34.3752L53.4516 33.9904C53.3228 40.0898 53.194 46.2195 53.067 52.3189C54.2854 52.4454 55.536 52.5737 56.7527 52.7019C58.2234 46.5716 59.6995 40.4627 61.1809 34.3752ZM52.7056 58.9261H57.1302V55.2564L52.3209 54.8734C52.4479 56.2451 52.5785 57.5865 52.7056 58.9261Z" fill="url(#paint7_linear)"/>
<path d="M38.9182 34.4304C45.7331 34.4304 50.9378 39.4503 50.9378 46.0254C50.9378 52.6004 45.7313 57.6185 38.9182 57.6185C32.105 57.6185 26.8985 52.5968 26.8985 46.0218C26.8985 39.4467 32.1032 34.4304 38.9182 34.4304Z" fill="#6B0094"/>
<path d="M38.4011 42.0475C38.4279 41.6449 38.4583 41.2441 38.5156 40.8451H29.3711V42.0475C30.2889 42.1045 31.1817 42.19 32.1032 42.247C33.8279 44.3366 35.5527 46.4279 37.3061 48.5442V51.781C36.3292 51.8665 35.3505 51.9235 34.3736 52.0107V53.0689H43.4036V52.0107C42.4267 51.952 41.448 51.9252 40.4711 51.895C40.5016 50.7513 40.5284 49.5792 40.557 48.432C42.2514 46.9427 43.9225 45.4553 45.59 43.9661C46.4506 43.9091 47.3147 43.8521 48.2058 43.7665V42.3628C45.6472 42.3931 43.1155 42.4198 40.557 42.4768V43.6525C41.5053 43.7095 42.4553 43.7363 43.4036 43.7665C42.1673 44.8265 40.9292 45.8561 39.6946 46.916C38.4297 45.3698 37.163 43.7951 35.898 42.2488C36.7318 42.1615 37.5637 42.1045 38.4011 42.0475Z" fill="white"/>
<path d="M59.3058 35.5776L52.3745 35.232C52.2582 40.7008 52.1437 46.1982 52.0292 51.6688C53.1206 51.7828 54.2424 51.8968 55.3356 52.0126C56.6584 46.5152 57.9818 41.0369 59.3058 35.5776ZM51.7143 57.5936H55.6827V54.3016L51.3708 53.9578C51.4835 55.1888 51.5998 56.3912 51.7143 57.5936Z" fill="#6B0094"/>
<path d="M75.9416 58.5609L71.372 55.3722V38.5685L75.9702 39.9705V51.2697L71.5044 55.2315L82.4023 49.524L79.3821 48.163L77.3371 43.7487L87.437 46.8305V51.7453L75.9416 58.5609Z" fill="url(#paint8_linear)"/>
<path d="M94.8567 53.3236H94.8174V54.5563H93.4451V41.9211L94.8174 42.329V47.5235H94.8514C95.5265 46.3905 96.5141 45.8234 97.8142 45.8223C98.914 45.8223 99.7746 46.2041 100.396 46.9677C101.017 47.7313 101.329 48.755 101.33 50.0388C101.33 51.4639 100.981 52.6069 100.283 53.4679C99.5855 54.3289 98.6313 54.7582 97.4206 54.7558C96.9023 54.775 96.3887 54.6514 95.9364 54.3987C95.484 54.146 95.1104 53.774 94.8567 53.3236ZM94.8174 49.882V51.0738C94.8022 51.7393 95.0502 52.3842 95.508 52.8694C95.7541 53.12 96.0513 53.3152 96.3795 53.4419C96.7078 53.5685 97.0594 53.6237 97.4109 53.6036C97.7624 53.5835 98.1054 53.4886 98.417 53.3254C98.7285 53.1622 99.0013 52.9344 99.2169 52.6574C99.6941 52.0244 99.9326 51.1438 99.9326 50.0156C99.9326 49.0655 99.712 48.3209 99.2706 47.7818C99.0564 47.5174 98.783 47.3066 98.4723 47.1662C98.1617 47.0258 97.8224 46.9596 97.4814 46.973C97.1187 46.9597 96.7575 47.0273 96.4244 47.1709C96.0913 47.3145 95.7947 47.5306 95.5563 47.8031C95.0577 48.3798 94.7941 49.1215 94.8174 49.882Z" fill="url(#paint9_linear)"/>
<path d="M103.835 44.0801C103.719 44.0823 103.603 44.0615 103.495 44.0186C103.388 43.9758 103.289 43.9119 103.207 43.8307C103.121 43.7489 103.054 43.6502 103.01 43.5409C102.965 43.4317 102.944 43.3144 102.947 43.1965C102.945 43.0789 102.967 42.9621 103.011 42.8531C103.055 42.744 103.121 42.645 103.205 42.5618C103.288 42.4787 103.388 42.4132 103.497 42.3692C103.607 42.3252 103.724 42.3036 103.842 42.3058C103.96 42.304 104.078 42.3255 104.188 42.3693C104.298 42.413 104.398 42.478 104.482 42.5605C104.566 42.6433 104.632 42.7417 104.678 42.8501C104.723 42.9585 104.746 43.0747 104.746 43.192C104.746 43.3094 104.723 43.4256 104.678 43.534C104.632 43.6424 104.566 43.7408 104.482 43.8235C104.398 43.908 104.297 43.9744 104.185 44.0185C104.074 44.0626 103.955 44.0836 103.835 44.0801V44.0801ZM104.504 54.5635H103.132V46.0218H104.504V54.5635Z" fill="url(#paint10_linear)"/>
<path d="M113.902 54.5581H112.53V49.6896C112.53 47.8785 111.866 46.973 110.537 46.973C110.213 46.9663 109.892 47.0321 109.597 47.1656C109.302 47.2992 109.041 47.4969 108.834 47.7444C108.373 48.287 108.132 48.9814 108.159 49.6914V54.5599H106.787V46.0218H108.159V47.4469H108.193C108.841 46.3685 109.778 45.8294 111.006 45.8294C111.943 45.8294 112.659 46.131 113.153 46.7343C113.647 47.3376 113.895 48.2087 113.897 49.3476L113.902 54.5581Z" fill="url(#paint11_linear)"/>
<path d="M123.623 53.8776C123.623 57.0117 122.116 58.5787 119.102 58.5787C118.138 58.6008 117.182 58.3938 116.314 57.9748L116.69 56.751C117.529 57.1643 118.3 57.3941 119.073 57.3941C121.113 57.3941 122.242 56.2914 122.242 54.0576V53.1241H122.208C121.555 54.2131 120.573 54.7576 119.261 54.7576C118.773 54.7745 118.288 54.6808 117.842 54.4836C117.396 54.2864 117.001 53.9909 116.686 53.6193C116.037 52.8605 115.683 51.8291 115.683 50.55C115.683 49.1 116.06 47.9599 116.756 47.1049C117.452 46.2498 118.434 45.7973 119.651 45.7973C120.807 45.7973 121.642 46.2142 122.201 47.1369H122.235V46.0218H123.623V53.8776ZM122.251 50.7015V49.442C122.252 48.7985 122.001 48.18 121.55 47.7189C121.099 47.2577 120.485 46.9906 119.839 46.9748C117.851 46.9748 117.141 48.7758 117.127 50.4752C117.127 52.098 117.955 53.5463 119.646 53.5463C121.337 53.5463 122.226 52.2121 122.242 50.6979L122.251 50.7015Z" fill="url(#paint12_linear)"/>
<path d="M77.1224 58.014L72.8105 54.9982V39.1154L77.1564 40.4408V51.1201L72.9358 54.861L83.236 49.4652L80.3734 48.1791L78.441 44.0071L87.9881 46.9303V51.5619L77.1224 58.014Z" fill="#F4BD27"/>
<path d="M94.9963 53.0635H94.9641V54.2339H93.6723V42.2987L94.9695 42.6835V47.5929H94.9963C95.6345 46.5241 96.5684 45.9897 97.7982 45.9897C98.8371 45.9897 99.6506 46.3507 100.239 47.0728C100.827 47.7948 101.121 48.7627 101.121 49.9764C101.121 51.3267 100.791 52.4074 100.131 53.2185C99.4716 54.0296 98.5711 54.4275 97.4296 54.412C96.9386 54.4324 96.4515 54.3173 96.0221 54.0793C95.5926 53.8413 95.2377 53.4898 94.9963 53.0635V53.0635ZM94.9641 49.809V50.9348C94.9517 51.5642 95.1881 52.1733 95.6225 52.6307C95.855 52.8678 96.1358 53.0525 96.4461 53.1723C96.7564 53.2922 97.0889 53.3443 97.4211 53.3252C97.7533 53.3061 98.0776 53.2163 98.372 53.0617C98.6664 52.9072 98.924 52.6916 99.1275 52.4294C99.5736 51.8356 99.7967 51.0043 99.7967 49.9355C99.7967 49.0376 99.5885 48.334 99.1723 47.8245C98.9696 47.5745 98.7109 47.3752 98.417 47.2425C98.1231 47.1098 97.8021 47.0474 97.4797 47.0603C97.1369 47.0475 96.7955 47.1113 96.4807 47.2469C96.1658 47.3825 95.8855 47.5866 95.6601 47.8441C95.1937 48.3893 94.9481 49.0879 94.9713 49.8036L94.9641 49.809Z" fill="#F4BD27"/>
<path d="M103.488 44.3188C103.378 44.3209 103.269 44.301 103.167 44.2603C103.065 44.2196 102.972 44.1589 102.894 44.0819C102.813 44.0046 102.75 43.9115 102.708 43.8084C102.665 43.7053 102.645 43.5946 102.649 43.4833C102.646 43.3727 102.667 43.2627 102.708 43.16C102.749 43.0573 102.811 42.9638 102.889 42.8852C102.967 42.8067 103.061 42.7445 103.164 42.7025C103.266 42.6605 103.377 42.6395 103.488 42.6407C103.6 42.6386 103.711 42.6587 103.815 42.7C103.918 42.7413 104.013 42.8029 104.092 42.8812C104.172 42.9594 104.234 43.0523 104.277 43.1547C104.32 43.2572 104.342 43.367 104.342 43.478C104.342 43.5889 104.32 43.6988 104.277 43.8012C104.234 43.9036 104.172 43.9966 104.092 44.0747C104.013 44.154 103.919 44.2164 103.815 44.2584C103.711 44.3003 103.6 44.3209 103.488 44.3188V44.3188ZM104.121 54.2339H102.824V46.1625H104.121V54.2339Z" fill="#F4BD27"/>
<path d="M113.003 54.2339H111.705V49.6291C111.705 47.9166 111.077 47.0603 109.821 47.0603C109.515 47.0539 109.212 47.116 108.933 47.2422C108.654 47.3683 108.408 47.5551 108.211 47.7889C107.777 48.3022 107.549 48.9582 107.574 49.6291V54.2339H106.277V46.1625H107.574V47.5021H107.606C108.218 46.4832 109.105 45.9737 110.265 45.9737C111.151 45.9737 111.83 46.2587 112.299 46.8288C112.769 47.3988 113.004 48.2218 113.004 49.2977L113.003 54.2339Z" fill="#F4BD27"/>
<path d="M122.192 53.5837C122.192 56.5455 120.768 58.0265 117.919 58.0265C117.011 58.0473 116.111 57.8532 115.293 57.46L115.651 56.3021C116.445 56.6922 117.175 56.9095 117.903 56.9095C119.832 56.9095 120.898 55.8674 120.898 53.7565V52.8658H120.866C120.241 53.8966 119.311 54.4121 118.077 54.4121C117.616 54.429 117.158 54.3416 116.736 54.1565C116.315 53.9713 115.941 53.6932 115.643 53.3432C115.03 52.6307 114.695 51.6509 114.695 50.4432C114.695 49.0715 115.053 47.9955 115.715 47.1868C116.377 46.3781 117.302 45.9505 118.452 45.9505C119.544 45.9505 120.335 46.3442 120.862 47.2153H120.895V46.1625H122.192V53.5837ZM120.886 50.5821V49.3921C120.887 48.7852 120.651 48.2016 120.226 47.7659C119.802 47.3303 119.223 47.0771 118.613 47.0603C116.735 47.0603 116.064 48.7615 116.05 50.3683C116.05 51.9021 116.833 53.2702 118.431 53.2702C120.029 53.2702 120.87 52.0125 120.886 50.5821Z" fill="#F4BD27"/>
<path d="M124.884 25.6215C123.934 25.6215 122.945 26.3127 122.945 26.3127V25.8691C122.945 25.7712 122.906 25.732 122.809 25.732H121.596C121.576 25.7297 121.557 25.7316 121.538 25.7374C121.519 25.7433 121.502 25.753 121.487 25.7659C121.473 25.7789 121.461 25.7948 121.453 25.8125C121.445 25.8303 121.44 25.8496 121.44 25.8691V35.3371C121.44 35.4351 121.48 35.4939 121.578 35.4939H122.811C122.83 35.4936 122.85 35.4891 122.868 35.4808C122.885 35.4725 122.901 35.4606 122.914 35.4458C122.927 35.431 122.936 35.4137 122.942 35.3949C122.948 35.3762 122.949 35.3565 122.947 35.3371V27.2319C123.332 27.0084 123.768 26.8858 124.214 26.8756C124.876 26.8756 125.396 27.2034 125.396 27.8732V35.3407C125.394 35.3616 125.397 35.3827 125.404 35.4024C125.411 35.4222 125.423 35.4401 125.437 35.455C125.452 35.47 125.47 35.4815 125.49 35.4888C125.51 35.4961 125.531 35.4991 125.552 35.4975H126.763C126.783 35.4971 126.802 35.4927 126.82 35.4844C126.838 35.4761 126.853 35.4641 126.866 35.4493C126.879 35.4345 126.889 35.4172 126.894 35.3985C126.9 35.3798 126.902 35.3601 126.899 35.3407V27.4439C126.899 26.2557 126.165 25.6215 124.884 25.6215Z" fill="url(#paint13_linear)"/>
<path d="M134.315 20.8724H133.106C133.086 20.8701 133.066 20.872 133.048 20.8778C133.029 20.8837 133.012 20.8934 132.997 20.9064C132.982 20.9193 132.971 20.9352 132.963 20.953C132.954 20.9707 132.95 20.99 132.95 21.0096V25.7854C132.559 25.6227 132.142 25.5304 131.719 25.5129C129.751 25.5129 128.398 27.3887 128.398 30.9942C128.398 34.0831 129.713 35.7415 131.429 35.7415C132.145 35.7415 132.75 35.3282 133.186 34.9417L133.451 35.3888C133.465 35.4236 133.49 35.4527 133.522 35.4715C133.555 35.4903 133.593 35.4975 133.63 35.4921H134.328C134.347 35.492 134.367 35.4878 134.385 35.4796C134.403 35.4714 134.419 35.4595 134.432 35.4447C134.445 35.4298 134.455 35.4124 134.461 35.3936C134.466 35.3747 134.468 35.3549 134.465 35.3354V21.0078C134.465 20.9098 134.426 20.8706 134.329 20.8706L134.315 20.8724ZM129.998 30.6699C129.998 28.6837 130.581 26.7153 131.773 26.7153C132.203 26.719 132.618 26.8728 132.946 27.1499V34.1507C132.62 34.341 132.251 34.4481 131.873 34.4625C130.57 34.4607 129.998 32.9358 129.998 30.6753V30.6699Z" fill="url(#paint14_linear)"/>
<path d="M138.96 25.5324C136.942 25.5324 135.945 28.1635 135.945 31.028C135.945 34.026 137.366 35.7059 139.194 35.7059C139.942 35.6785 140.672 35.4707 141.322 35.1002C141.354 35.0847 141.379 35.0581 141.393 35.0253C141.407 34.9925 141.408 34.9558 141.397 34.9221L141.243 34.2879C141.24 34.27 141.235 34.2528 141.225 34.2373C141.216 34.2218 141.204 34.2082 141.19 34.1974C141.175 34.1866 141.158 34.1788 141.141 34.1745C141.123 34.1701 141.105 34.1693 141.087 34.1721C140.646 34.2832 140.193 34.3477 139.738 34.3645C138.242 34.3645 137.557 33.0391 137.557 31.2809V30.8534C137.952 30.9085 138.349 30.943 138.747 30.9567H141.569V30.1444C141.569 27.1446 140.515 25.5396 138.962 25.5396L138.96 25.5324ZM138.863 29.7311C138.416 29.7311 137.611 29.8416 137.611 29.8416C137.611 29.8416 137.622 29.5192 137.661 29.2092C137.84 27.565 138.23 26.7331 138.913 26.7331C139.504 26.7331 139.91 27.5846 140.007 29.0738C140.026 29.3838 140.026 29.7311 140.026 29.7311H138.876H138.863Z" fill="url(#paint15_linear)"/>
<path d="M119.136 26.7616C118.687 25.8816 117.883 25.4968 116.974 25.4968C116.245 25.5346 115.527 25.7036 114.858 25.9956C114.738 26.0491 114.663 26.0972 114.663 26.1898C114.668 26.253 114.688 26.3141 114.722 26.3679L115.135 27.2479C115.147 27.2831 115.169 27.3138 115.199 27.3358C115.229 27.3578 115.264 27.3701 115.302 27.3708C115.362 27.366 115.419 27.3437 115.466 27.3067C116.064 26.9255 116.502 26.7171 116.847 26.7171C117.305 26.7171 117.617 27.0199 117.808 27.4759C117.997 28.0182 118.082 28.5912 118.057 29.1647C118.057 29.252 118.057 29.3642 118.057 29.3642C117.639 29.1438 117.175 29.0219 116.703 29.0079C114.951 29.0079 114.006 30.6664 114.006 32.4388C114.006 34.3502 115.11 35.7504 116.438 35.7504C117.177 35.7504 117.846 35.3175 118.293 34.7742C118.293 34.7742 118.531 35.3407 118.563 35.4084C118.574 35.4396 118.595 35.4661 118.623 35.4831C118.651 35.5001 118.685 35.5065 118.717 35.501H119.433C119.452 35.5007 119.472 35.4962 119.49 35.4879C119.507 35.4796 119.523 35.4677 119.536 35.4529C119.549 35.4381 119.558 35.4208 119.564 35.4021C119.57 35.3833 119.571 35.3636 119.569 35.3443V29.8434C119.569 28.4931 119.501 27.4635 119.143 26.7616H119.136ZM118.062 33.9566C117.762 34.2649 117.355 34.4472 116.924 34.466C116.746 34.4655 116.57 34.4202 116.414 34.3343C116.258 34.2483 116.125 34.1246 116.03 33.9744C115.747 33.586 115.617 32.9875 115.617 32.3266C115.617 31.2792 116.005 30.205 116.828 30.205C117.277 30.2071 117.713 30.3602 118.064 30.6396V33.9583L118.062 33.9566Z" fill="url(#paint16_linear)"/>
<path d="M147.97 25.732H146.897C146.85 25.7289 146.804 25.7415 146.765 25.7676C146.727 25.7938 146.698 25.832 146.684 25.8762C146.616 26.0544 146.158 27.2532 145.968 27.7502C145.834 28.1065 145.474 29.1201 145.474 29.1201H145.433C145.433 29.1201 145.168 28.3809 145.025 28.0139C144.911 27.7146 144.31 26.1363 144.231 25.9404C144.19 25.8353 144.145 25.732 143.989 25.732H142.803C142.776 25.7335 142.75 25.7411 142.726 25.7543C142.702 25.7674 142.682 25.7857 142.666 25.8079C142.651 25.83 142.641 25.8554 142.636 25.882C142.632 25.9087 142.634 25.9359 142.642 25.9618C142.685 26.0508 144.569 30.3279 144.569 30.3279C144.569 30.3279 142.545 35.118 142.486 35.2249C142.47 35.2523 142.462 35.2834 142.462 35.315C142.463 35.3467 142.471 35.3777 142.487 35.4049C142.504 35.4321 142.527 35.4545 142.555 35.4699C142.582 35.4852 142.614 35.4929 142.646 35.4921H143.682C143.86 35.4921 143.927 35.3995 143.98 35.2516C144.129 34.8366 144.351 34.2576 144.666 33.3634C144.873 32.7702 145.202 31.7316 145.202 31.7316H145.238C145.238 31.7316 145.596 32.7915 145.732 33.1371C146.07 34.0136 146.505 35.1572 146.55 35.2748C146.594 35.3923 146.664 35.4885 146.786 35.4885H147.956C148.072 35.4885 148.135 35.3567 148.072 35.2409C147.942 34.9666 146.82 32.2625 146.05 30.4864C146.05 30.4864 148.063 26.0615 148.103 25.9528C148.142 25.8442 148.129 25.7284 147.965 25.7284L147.97 25.732Z" fill="url(#paint17_linear)"/>
<path d="M115.232 19.4473H113.868C113.821 19.4415 113.774 19.4529 113.735 19.4794C113.696 19.506 113.667 19.5459 113.656 19.5916C113.638 19.6771 111.612 25.8264 111.464 26.3465C111.36 26.7028 111.018 27.9925 110.938 28.3061L110.233 26.3893C110.054 25.8549 108.42 21.2928 108.372 21.1093C108.345 21.0095 108.299 20.8848 108.123 20.8848H106.792C106.766 20.8861 106.741 20.8929 106.718 20.9049C106.695 20.9169 106.675 20.9337 106.659 20.9542C106.643 20.9747 106.632 20.9984 106.626 21.0237C106.621 21.0489 106.62 21.0751 106.626 21.1004C106.66 21.1716 109.063 27.5418 110.025 29.9752V35.3193C110.025 35.4173 110.065 35.4761 110.163 35.4761H111.416C111.435 35.4757 111.455 35.4713 111.472 35.463C111.49 35.4547 111.506 35.4428 111.519 35.428C111.532 35.4132 111.541 35.3959 111.547 35.3771C111.552 35.3584 111.554 35.3387 111.552 35.3193V30.0108C112.36 27.7592 115.309 19.7465 115.35 19.6557C115.391 19.5648 115.379 19.4312 115.212 19.4312L115.232 19.4473Z" fill="url(#paint18_linear)"/>
<path d="M125.054 25.7569C124.171 25.7569 123.247 26.3999 123.247 26.3999V25.9867C123.247 25.8958 123.212 25.8602 123.12 25.8602H121.991C121.973 25.8582 121.955 25.86 121.938 25.8654C121.921 25.8708 121.905 25.8798 121.891 25.8916C121.877 25.9035 121.866 25.9181 121.859 25.9345C121.851 25.9509 121.847 25.9686 121.846 25.9867V34.8027C121.846 34.8935 121.882 34.9488 121.973 34.9488H123.12C123.139 34.9484 123.157 34.9442 123.173 34.9365C123.19 34.9288 123.205 34.9176 123.216 34.9039C123.228 34.8901 123.237 34.874 123.243 34.8565C123.248 34.8391 123.25 34.8208 123.247 34.8027V27.2568C123.605 27.047 124.011 26.9311 124.426 26.9201C125.042 26.9201 125.529 27.2247 125.529 27.8482V34.7956C125.527 34.8151 125.529 34.8347 125.536 34.8532C125.542 34.8717 125.553 34.8885 125.567 34.9024C125.58 34.9163 125.597 34.9271 125.616 34.9339C125.634 34.9406 125.654 34.9433 125.673 34.9416H126.802C126.821 34.9416 126.839 34.9376 126.856 34.9299C126.872 34.9223 126.887 34.9112 126.899 34.8973C126.911 34.8835 126.92 34.8673 126.925 34.8497C126.931 34.8322 126.932 34.8137 126.929 34.7956V27.4545C126.931 26.3465 126.25 25.7569 125.054 25.7569Z" fill="#010202"/>
<path d="M133.836 21.3355H132.707C132.689 21.3335 132.67 21.3353 132.653 21.3407C132.636 21.3461 132.62 21.3551 132.606 21.367C132.593 21.3789 132.582 21.3935 132.574 21.4098C132.566 21.4262 132.562 21.4439 132.562 21.462V25.9154C132.198 25.7642 131.809 25.6786 131.415 25.6625C129.581 25.6625 128.323 27.4082 128.323 30.7661C128.323 33.643 129.547 35.1857 131.145 35.1857C131.817 35.1857 132.374 34.8009 132.782 34.4411L133.029 34.8579C133.041 34.8891 133.063 34.9154 133.092 34.9327C133.121 34.9501 133.155 34.9576 133.188 34.9541H133.837C133.856 34.9538 133.874 34.9496 133.89 34.9418C133.907 34.9341 133.922 34.923 133.934 34.9092C133.946 34.8955 133.955 34.8793 133.96 34.8619C133.965 34.8445 133.967 34.8261 133.964 34.808V21.4566C133.964 21.3658 133.929 21.3302 133.837 21.3302L133.836 21.3355ZM129.815 30.4633C129.815 28.6124 130.352 26.7812 131.469 26.7812C131.869 26.7845 132.256 26.9275 132.562 27.1855V33.7036C132.256 33.8815 131.91 33.9813 131.556 33.994C130.35 33.994 129.817 32.5671 129.817 30.4633H129.815Z" fill="#010202"/>
<path d="M138.16 25.6749C136.28 25.6749 135.353 28.1243 135.353 30.791C135.353 33.5825 136.677 35.1465 138.377 35.1465C139.073 35.1216 139.753 34.9284 140.357 34.5836C140.39 34.5688 140.415 34.5419 140.428 34.5086C140.441 34.4754 140.441 34.4383 140.427 34.4054L140.284 33.8158C140.282 33.799 140.277 33.7828 140.268 33.7682C140.26 33.7535 140.248 33.7407 140.235 33.7306C140.221 33.7204 140.206 33.7131 140.189 33.7091C140.173 33.705 140.156 33.7044 140.139 33.7071C139.729 33.8101 139.309 33.8698 138.887 33.8853C137.495 33.8853 136.856 32.6526 136.856 31.0137V30.6165C137.223 30.6678 137.593 30.6999 137.963 30.7127H140.59V29.9556C140.59 27.1624 139.608 25.6678 138.162 25.6678L138.16 25.6749ZM138.069 29.5851C137.654 29.5851 136.897 29.6866 136.897 29.6866C136.897 29.6866 136.908 29.3855 136.943 29.097C137.106 27.565 137.48 26.7919 138.106 26.7919C138.658 26.7919 139.033 27.5846 139.125 28.9723C139.142 29.2608 139.142 29.5851 139.142 29.5851H138.069V29.5851Z" fill="#010202"/>
<path d="M119.705 26.8204C119.288 26.0009 118.544 25.6429 117.692 25.6429C117.013 25.6779 116.347 25.8348 115.724 26.106C115.613 26.1559 115.545 26.2005 115.545 26.2842C115.55 26.3424 115.569 26.3986 115.6 26.4481L115.985 27.2675C115.995 27.3006 116.016 27.3295 116.044 27.35C116.072 27.3705 116.106 27.3815 116.141 27.3815C116.197 27.3775 116.25 27.357 116.295 27.3227C116.851 26.9664 117.259 26.7741 117.581 26.7741C118.009 26.7741 118.297 27.0555 118.476 27.4866C118.651 27.9918 118.73 28.5254 118.706 29.0596C118.706 29.1397 118.706 29.2377 118.706 29.2377C118.32 29.0314 117.892 28.9156 117.454 28.8992C115.822 28.8992 114.949 30.4437 114.949 32.0932C114.949 33.8746 115.978 35.1768 117.212 35.1768C117.901 35.1768 118.524 34.7742 118.941 34.2665C118.941 34.2665 119.163 34.8009 119.191 34.8579C119.201 34.8871 119.22 34.912 119.247 34.928C119.273 34.944 119.304 34.9501 119.334 34.9452H119.995C120.013 34.9449 120.031 34.9407 120.048 34.9329C120.064 34.9252 120.079 34.9141 120.091 34.9003C120.103 34.8866 120.112 34.8704 120.117 34.853C120.122 34.8356 120.124 34.8172 120.122 34.7991V29.6884C120.122 28.4325 120.057 27.4741 119.724 26.8204H119.705ZM118.699 33.5201C118.42 33.807 118.041 33.9765 117.64 33.994C117.474 33.9936 117.31 33.9515 117.164 33.8715C117.019 33.7915 116.895 33.6761 116.806 33.5361C116.543 33.1799 116.422 32.6187 116.422 32.0024C116.422 31.028 116.78 30.0268 117.549 30.0268C117.967 30.0288 118.372 30.1713 118.699 30.4312V33.5201Z" fill="#010202"/>
<path d="M146.55 25.8584H145.544C145.501 25.8556 145.457 25.8674 145.421 25.892C145.385 25.9165 145.359 25.9524 145.345 25.9938C145.281 26.1613 144.857 27.2764 144.682 27.7378C144.558 28.0673 144.222 29.0132 144.222 29.0132H144.183C144.183 29.0132 143.936 28.3256 143.803 27.9818C143.696 27.7039 143.136 26.2325 143.064 26.0508C143.027 25.9528 142.984 25.8566 142.841 25.8566H141.739C141.713 25.8573 141.688 25.8638 141.666 25.8758C141.643 25.8878 141.624 25.9049 141.609 25.9257C141.595 25.9465 141.585 25.9705 141.581 25.9956C141.578 26.0207 141.58 26.0463 141.588 26.0704C141.628 26.1523 143.377 30.1355 143.377 30.1355C143.377 30.1355 141.493 34.5889 141.438 34.6958C141.427 34.7217 141.422 34.7498 141.424 34.7779C141.426 34.8059 141.434 34.8332 141.449 34.8573C141.463 34.8815 141.483 34.9019 141.507 34.9168C141.531 34.9318 141.558 34.9409 141.586 34.9434H142.553C142.717 34.9434 142.782 34.8579 142.832 34.719C142.971 34.3324 143.177 33.7927 143.47 32.9608C143.664 32.4085 143.971 31.4412 143.971 31.4412H144.005C144.005 31.4412 144.342 32.4281 144.465 32.7506C144.78 33.5664 145.181 34.6317 145.227 34.7439C145.274 34.8561 145.335 34.9434 145.447 34.9434H146.542C146.652 34.9434 146.702 34.8205 146.65 34.7136C146.528 34.4571 145.489 31.9418 144.766 30.2869C144.766 30.2869 146.639 26.1684 146.675 26.0651C146.711 25.9617 146.7 25.8549 146.546 25.8549L146.55 25.8584Z" fill="#010202"/>
<path d="M116.069 20.0084H114.801C114.757 20.0023 114.712 20.0128 114.675 20.0379C114.638 20.0629 114.612 20.1007 114.602 20.1438C114.586 20.2239 112.698 25.9564 112.562 26.4338C112.466 26.7723 112.147 27.9658 112.072 28.2526L111.416 26.4712C111.256 25.9796 109.728 21.7256 109.684 21.5564C109.659 21.4638 109.616 21.3462 109.451 21.3462H108.213C108.187 21.3468 108.162 21.3534 108.14 21.3654C108.118 21.3774 108.098 21.3945 108.084 21.4153C108.069 21.4361 108.059 21.46 108.056 21.4852C108.052 21.5103 108.055 21.5359 108.063 21.56C108.093 21.6259 110.331 27.5579 111.235 29.8238V34.8116C111.235 34.9025 111.271 34.9577 111.362 34.9577H112.53C112.549 34.9573 112.567 34.9531 112.583 34.9454C112.6 34.9377 112.614 34.9266 112.626 34.9128C112.638 34.899 112.647 34.8829 112.653 34.8655C112.658 34.848 112.66 34.8297 112.657 34.8116V29.8594C113.41 27.7627 116.164 20.3023 116.193 20.2186C116.221 20.1349 116.218 20.0084 116.064 20.0084H116.069Z" fill="#E52620"/>
<defs>
<linearGradient id="paint0_linear" x1="77.9991" y1="96" x2="77.9991" y2="67.2789" gradientUnits="userSpaceOnUse">
<stop stop-color="#808080" stop-opacity="0.25"/>
<stop offset="0.54" stop-color="#808080" stop-opacity="0.12"/>
<stop offset="1" stop-color="#808080" stop-opacity="0.1"/>
</linearGradient>
<linearGradient id="paint1_linear" x1="130.862" y1="93.4705" x2="130.862" y2="72.0423" gradientUnits="userSpaceOnUse">
<stop stop-color="#B3B3B3" stop-opacity="0.25"/>
<stop offset="0.54" stop-color="#B3B3B3" stop-opacity="0.1"/>
<stop offset="1" stop-color="#B3B3B3" stop-opacity="0.05"/>
</linearGradient>
<linearGradient id="paint2_linear" x1="124.21" y1="79.6844" x2="124.21" y2="78.653" gradientUnits="userSpaceOnUse">
<stop stop-opacity="0.12"/>
<stop offset="0.55" stop-opacity="0.09"/>
<stop offset="1" stop-opacity="0.02"/>
</linearGradient>
<linearGradient id="paint3_linear" x1="8026.96" y1="2031.43" x2="8026.96" y2="1975.67" gradientUnits="userSpaceOnUse">
<stop stop-opacity="0.12"/>
<stop offset="0.55" stop-opacity="0.09"/>
<stop offset="1" stop-opacity="0.02"/>
</linearGradient>
<linearGradient id="paint4_linear" x1="15040.4" y1="9395.74" x2="15040.4" y2="5032.2" gradientUnits="userSpaceOnUse">
<stop stop-color="#808080" stop-opacity="0.25"/>
<stop offset="0.54" stop-color="#808080" stop-opacity="0.12"/>
<stop offset="1" stop-color="#808080" stop-opacity="0.1"/>
</linearGradient>
<linearGradient id="paint5_linear" x1="10179.1" y1="13262" x2="10179.1" y2="9507.12" gradientUnits="userSpaceOnUse">
<stop stop-color="#808080" stop-opacity="0.25"/>
<stop offset="0.54" stop-color="#808080" stop-opacity="0.12"/>
<stop offset="1" stop-color="#808080" stop-opacity="0.1"/>
</linearGradient>
<linearGradient id="paint6_linear" x1="7966.41" y1="6625.18" x2="7966.41" y2="5581.86" gradientUnits="userSpaceOnUse">
<stop stop-color="#808080" stop-opacity="0.25"/>
<stop offset="0.54" stop-color="#808080" stop-opacity="0.12"/>
<stop offset="1" stop-color="#808080" stop-opacity="0.1"/>
</linearGradient>
<linearGradient id="paint7_linear" x1="4315.93" y1="12784.6" x2="4315.93" y2="9293.85" gradientUnits="userSpaceOnUse">
<stop stop-color="#808080" stop-opacity="0.25"/>
<stop offset="0.54" stop-color="#808080" stop-opacity="0.12"/>
<stop offset="1" stop-color="#808080" stop-opacity="0.1"/>
</linearGradient>
<linearGradient id="paint8_linear" x1="7201.02" y1="6610.85" x2="7201.02" y2="4367.11" gradientUnits="userSpaceOnUse">
<stop stop-color="#808080" stop-opacity="0.25"/>
<stop offset="0.54" stop-color="#808080" stop-opacity="0.12"/>
<stop offset="1" stop-color="#808080" stop-opacity="0.1"/>
</linearGradient>
<linearGradient id="paint9_linear" x1="5679.11" y1="6305.47" x2="5679.11" y2="5380.46" gradientUnits="userSpaceOnUse">
<stop stop-color="#808080" stop-opacity="0.25"/>
<stop offset="0.54" stop-color="#808080" stop-opacity="0.12"/>
<stop offset="1" stop-color="#808080" stop-opacity="0.1"/>
</linearGradient>
<linearGradient id="paint10_linear" x1="1442.38" y1="6009.64" x2="1442.38" y2="5165.94" gradientUnits="userSpaceOnUse">
<stop stop-color="#808080" stop-opacity="0.25"/>
<stop offset="0.54" stop-color="#808080" stop-opacity="0.12"/>
<stop offset="1" stop-color="#808080" stop-opacity="0.1"/>
</linearGradient>
<linearGradient id="paint11_linear" x1="5662.47" y1="4296.01" x2="5662.47" y2="3867.87" gradientUnits="userSpaceOnUse">
<stop stop-color="#808080" stop-opacity="0.25"/>
<stop offset="0.54" stop-color="#808080" stop-opacity="0.12"/>
<stop offset="1" stop-color="#808080" stop-opacity="0.1"/>
</linearGradient>
<linearGradient id="paint12_linear" x1="6728.36" y1="6557.05" x2="6728.36" y2="5640.13" gradientUnits="userSpaceOnUse">
<stop stop-color="#808080" stop-opacity="0.25"/>
<stop offset="0.54" stop-color="#808080" stop-opacity="0.12"/>
<stop offset="1" stop-color="#808080" stop-opacity="0.1"/>
</linearGradient>
<linearGradient id="paint13_linear" x1="4806.31" y1="3776.57" x2="4806.31" y2="3229.32" gradientUnits="userSpaceOnUse">
<stop stop-color="#808080" stop-opacity="0.25"/>
<stop offset="0.54" stop-color="#808080" stop-opacity="0.12"/>
<stop offset="1" stop-color="#808080" stop-opacity="0.1"/>
</linearGradient>
<linearGradient id="paint14_linear" x1="5581.29" y1="5689.51" x2="5581.29" y2="4448.24" gradientUnits="userSpaceOnUse">
<stop stop-color="#808080" stop-opacity="0.25"/>
<stop offset="0.54" stop-color="#808080" stop-opacity="0.12"/>
<stop offset="1" stop-color="#808080" stop-opacity="0.1"/>
</linearGradient>
<linearGradient id="paint15_linear" x1="5419.56" y1="3901.51" x2="5419.56" y2="3320.5" gradientUnits="userSpaceOnUse">
<stop stop-color="#808080" stop-opacity="0.25"/>
<stop offset="0.54" stop-color="#808080" stop-opacity="0.12"/>
<stop offset="1" stop-color="#808080" stop-opacity="0.1"/>
</linearGradient>
<linearGradient id="paint16_linear" x1="4658.31" y1="3934.06" x2="4658.31" y2="3344.38" gradientUnits="userSpaceOnUse">
<stop stop-color="#808080" stop-opacity="0.25"/>
<stop offset="0.54" stop-color="#808080" stop-opacity="0.12"/>
<stop offset="1" stop-color="#808080" stop-opacity="0.1"/>
</linearGradient>
<linearGradient id="paint17_linear" x1="5666.32" y1="3733.91" x2="5666.32" y2="3198.85" gradientUnits="userSpaceOnUse">
<stop stop-color="#808080" stop-opacity="0.25"/>
<stop offset="0.54" stop-color="#808080" stop-opacity="0.12"/>
<stop offset="1" stop-color="#808080" stop-opacity="0.1"/>
</linearGradient>
<linearGradient id="paint18_linear" x1="6968.98" y1="6113.1" x2="6968.98" y2="4667.94" gradientUnits="userSpaceOnUse">
<stop stop-color="#808080" stop-opacity="0.25"/>
<stop offset="0.54" stop-color="#808080" stop-opacity="0.12"/>
<stop offset="1" stop-color="#808080" stop-opacity="0.1"/>
</linearGradient>
</defs>
</svg>
