<svg width="156" height="96" viewBox="0 0 156 96" fill="none" xmlns="http://www.w3.org/2000/svg">
<g clip-path="url(#clip0)">
<path d="M65.6005 55.4402C77.4643 55.4402 87.0818 47.4362 87.0818 37.5627C87.0818 27.6893 77.4643 19.6853 65.6005 19.6853C53.7367 19.6853 44.1192 27.6893 44.1192 37.5627C44.1192 47.4362 53.7367 55.4402 65.6005 55.4402Z" fill="#6C63FF"/>
<path d="M68.4096 52.4148C56.4736 52.4148 46.7631 44.3333 46.7631 34.3998C46.7631 24.4663 56.4736 16.3848 68.4096 16.3848C80.3455 16.3848 90.0561 24.4663 90.0561 34.3998C90.0561 44.3333 80.3455 52.4148 68.4096 52.4148ZM68.4096 16.6599C64.1937 16.6599 60.0724 17.7003 56.567 19.6496C53.0616 21.5989 50.3294 24.3695 48.7161 27.611C47.1027 30.8526 46.6806 34.4195 47.503 37.8607C48.3255 41.3019 50.3557 44.4629 53.3368 46.9439C56.3179 49.4249 60.1161 51.1144 64.251 51.7989C68.3859 52.4834 72.6719 52.1321 76.5669 50.7894C80.4619 49.4467 83.791 47.1729 86.1332 44.2556C88.4755 41.3383 89.7256 37.9084 89.7256 34.3998C89.7192 29.6965 87.4714 25.1874 83.4752 21.8616C79.4791 18.5359 74.061 16.6652 68.4096 16.6599V16.6599Z" fill="#3F3D56"/>
<path d="M134.01 60.6459H0V0H134.01V60.6459ZM0.330481 60.3709H133.68V0.275038H0.330481V60.3709Z" fill="#3F3D56"/>
<path d="M33.8743 4.8132H4.46149V7.28854H33.8743V4.8132Z" fill="#F2F2F2"/>
<path d="M77.9936 4.8132H48.5807V7.28854H77.9936V4.8132Z" fill="#F2F2F2"/>
<path d="M122.113 4.8132H92.7V7.28854H122.113V4.8132Z" fill="#F2F2F2"/>
<path d="M35.8572 6.18834H6.11389V3.43796H35.8572V6.18834ZM6.44437 5.9133H35.5267V3.713H6.44437V5.9133Z" fill="#3F3D56"/>
<path d="M79.9765 6.18834H50.2332V3.43796H79.9765V6.18834ZM50.5636 5.9133H79.646V3.713H50.5636V5.9133Z" fill="#3F3D56"/>
<path d="M124.096 6.18834H94.3524V3.43796H124.096V6.18834ZM94.6828 5.9133H123.765V3.713H94.6828V5.9133Z" fill="#3F3D56"/>
<path d="M156 93.8893H19.2462V94.2406H156V93.8893Z" fill="#2F2E41"/>
<path d="M65.0222 66.4904L75.4323 49.7131L78.2414 51.0883L66.3441 67.178L65.0222 66.4904Z" fill="#3F3D56"/>
<path d="M58.9909 70.1347C58.9909 70.1347 60.9096 71.3893 61.1274 68.7048C61.1552 68.2785 61.2892 67.8617 61.521 67.4807C61.7527 67.0998 62.0771 66.7632 62.4735 66.4922C63.3423 65.9145 64.5926 65.5194 66.0963 66.2841C67.4347 66.9648 67.7359 67.9519 67.6623 68.8317C67.5965 69.462 67.3482 70.0696 66.9387 70.6026C66.5291 71.1356 65.9704 71.5781 65.3104 71.8921C63.8188 72.629 61.4641 73.1836 58.9909 71.3723C58.9909 71.3723 57.5038 69.9971 58.9909 70.1347Z" fill="#6C63FF"/>
<path d="M77.3982 30.3974C79.6127 30.3974 81.4079 28.9033 81.4079 27.0603C81.4079 25.2173 79.6127 23.7233 77.3982 23.7233C75.1837 23.7233 73.3884 25.2173 73.3884 27.0603C73.3884 28.9033 75.1837 30.3974 77.3982 30.3974Z" fill="#FFB8B8"/>
<path d="M75.2878 28.641C75.2878 28.641 76.343 33.2075 75.9209 34.0857C75.4988 34.9639 81.83 33.7344 81.83 33.7344C81.83 33.7344 80.5638 29.1679 80.7748 28.1141C80.9859 27.0603 75.2878 28.641 75.2878 28.641Z" fill="#FFB8B8"/>
<path d="M68.3235 44.4482L68.7455 49.1902L70.8403 56.6377L71.489 58.6746L72.5442 55.5132L71.489 48.3122L71.1306 45.0702L68.3235 44.4482Z" fill="#FFB8B8"/>
<path d="M90.4826 43.7456V48.6634C90.4826 48.6634 89.8495 54.9863 88.5833 56.567C87.317 58.1477 86.895 50.2441 86.895 50.2441L87.8872 44.4482L90.4826 43.7456Z" fill="#FFB8B8"/>
<path d="M71.7001 59.0258C71.7001 59.0258 70.6449 60.0797 71.4891 70.7934C72.3332 81.5071 71.067 89.235 73.8105 89.235C73.8105 89.235 72.9664 91.5183 75.2878 91.6939C77.6092 91.8695 78.6644 92.0452 78.8755 91.5183C79.0865 90.9914 79.5086 88.5325 78.8755 88.5325C78.8755 88.5325 78.8755 89.235 79.2976 86.4249C79.7196 83.6147 79.7196 70.2665 80.7748 68.5101L84.1515 75.0086C84.1515 75.0086 84.1515 77.9944 84.7846 79.3995C85.4177 80.8046 86.4729 88.8837 86.4729 88.8837L86.2619 90.1132C86.2619 90.1132 91.3268 90.8157 91.5379 90.1132C91.7489 89.4106 91.7489 88.3568 91.5379 88.0056C91.3268 87.6543 91.3268 87.6543 91.7489 86.9518C92.171 86.2492 92.171 85.7223 91.9599 85.1954C91.7489 84.6685 91.7489 73.2523 91.7489 73.2523C91.7489 73.2523 91.3268 59.3771 88.7944 58.6746C86.2619 57.972 71.7001 59.0258 71.7001 59.0258Z" fill="#2F2E41"/>
<path d="M74.4436 90.2888L72.7553 92.7477C72.7553 92.7477 70.1173 91.9573 70.6449 93.9771C75.1823 94.2406 78.3478 93.8893 78.3478 93.8893C78.3478 93.8893 79.403 94.2406 79.6141 93.7137C79.8251 93.1868 79.0865 91.3426 78.4534 91.3426C77.8202 91.3426 74.4436 90.2888 74.4436 90.2888Z" fill="#2F2E41"/>
<path d="M86.684 89.5863C86.684 89.5863 84.9956 92.7477 85.6288 92.9234C86.2619 93.099 91.96 93.8015 92.382 93.9772C92.8041 94.1528 94.9145 94.3284 95.1256 93.2746C95.3366 92.2208 94.0704 91.8695 94.0704 91.8695C94.0704 91.8695 91.7489 91.5183 91.1158 89.7619C90.4827 88.0056 86.684 89.5863 86.684 89.5863Z" fill="#2F2E41"/>
<path d="M82.2521 33.2076C82.2521 33.2076 76.554 32.3294 75.2878 33.2076C74.0215 34.0857 68.7455 35.8421 68.7455 36.7203C68.7455 37.5984 71.4891 46.2045 71.4891 46.2045C71.4891 46.2045 70.0118 59.2015 71.4891 59.5527C72.9663 59.904 75.4988 58.8502 78.4534 60.0796C81.4079 61.3091 89.8495 59.0258 89.8495 59.0258C89.8495 59.0258 86.6839 47.7852 87.5281 45.6776C88.3723 43.57 89.0054 36.369 89.0054 36.369C89.0054 36.369 85.4177 33.2076 82.2521 33.2076Z" fill="#8985A8"/>
<path d="M70.2228 36.1934L68.7455 36.5446C68.7455 36.5446 65.5799 44.7995 66.8462 45.1507C68.1124 45.502 71.7001 46.2045 72.1222 46.2045C72.5442 46.2045 70.2228 36.1934 70.2228 36.1934Z" fill="#8985A8"/>
<path d="M85.6287 35.3152L89.0054 36.369C89.0054 36.369 93.4372 43.2187 92.382 44.0969C91.3268 44.9751 86.6839 45.8533 86.6839 45.8533L85.6287 35.3152Z" fill="#8985A8"/>
<path d="M77.2764 22.9386C76.943 22.8883 76.6002 22.9009 76.2734 22.9755C76.0118 23.0719 75.771 23.2033 75.5605 23.3646C75.1787 23.6179 74.7709 23.8427 74.3417 24.0366C73.9998 24.1911 73.6322 24.3341 73.3934 24.5899C73.2806 24.7191 73.1904 24.8611 73.1258 25.0115C72.7145 25.8856 72.604 26.8378 72.8066 27.7613C72.8293 27.8925 72.8768 28.02 72.9472 28.1389C73.1665 28.4752 73.651 28.6078 74.0591 28.7841C74.8339 29.1188 75.4212 29.6824 76.0567 30.1806C76.2927 30.3767 76.558 30.5468 76.846 30.6868C77.7526 31.0982 78.8607 30.964 79.8785 30.8185C79.9506 30.8184 80.022 30.8064 80.0885 30.7832C80.155 30.76 80.2154 30.7261 80.2661 30.6834C80.3168 30.6407 80.3568 30.5901 80.3839 30.5345C80.411 30.4789 80.4246 30.4193 80.4239 30.3593L81.2272 27.3524C81.3728 26.9069 81.4422 26.4465 81.4331 25.9848C81.3771 25.2549 80.9022 24.2438 80.2585 23.7253C79.5085 23.1211 78.2568 23.025 77.2764 22.9386Z" fill="#2F2E41"/>
<path d="M60.8085 93.9254C64.0026 93.9254 66.5919 93.8023 66.5919 93.6504C66.5919 93.4985 64.0026 93.3754 60.8085 93.3754C57.6144 93.3754 55.0251 93.4985 55.0251 93.6504C55.0251 93.8023 57.6144 93.9254 60.8085 93.9254Z" fill="#6C63FF"/>
<path d="M59.4866 94.4755C62.6807 94.4755 65.27 94.3524 65.27 94.2005C65.27 94.0486 62.6807 93.9254 59.4866 93.9254C56.2925 93.9254 53.7032 94.0486 53.7032 94.2005C53.7032 94.3524 56.2925 94.4755 59.4866 94.4755Z" fill="#6C63FF"/>
<path d="M53.7032 92.6996C55.4371 92.6996 56.8427 92.6327 56.8427 92.5502C56.8427 92.4678 55.4371 92.4009 53.7032 92.4009C51.9692 92.4009 50.5636 92.4678 50.5636 92.5502C50.5636 92.6327 51.9692 92.6996 53.7032 92.6996Z" fill="#6C63FF"/>
<path d="M64.9396 96C66.6735 96 68.0791 95.9331 68.0791 95.8507C68.0791 95.7682 66.6735 95.7014 64.9396 95.7014C63.2056 95.7014 61.8 95.7682 61.8 95.8507C61.8 95.9331 63.2056 96 64.9396 96Z" fill="#6C63FF"/>
</g>
<defs>
<clipPath id="clip0">
<rect width="156" height="96" fill="white"/>
</clipPath>
</defs>
</svg>
