<svg width="156" height="97" viewBox="0 0 156 97" fill="none" xmlns="http://www.w3.org/2000/svg">
<g clip-path="url(#clip0)">
<path d="M125.278 90.2179C124.265 93.634 120.717 95.7689 120.717 95.7689C120.717 95.7689 118.811 92.3651 119.823 88.9489C120.836 85.5327 124.384 83.3978 124.384 83.3978C124.384 83.3978 126.29 86.8017 125.278 90.2179Z" fill="#3F3D56"/>
<path d="M123.742 89.4952C120.906 91.9776 120.589 95.767 120.589 95.767C120.589 95.767 124.869 95.5318 127.705 93.0494C130.541 90.5671 130.859 86.7776 130.859 86.7776C130.859 86.7776 126.578 87.0129 123.742 89.4952Z" fill="#6C63FF"/>
<path d="M20.9825 77.2951H26.3235L39.4853 72.7322C39.4853 72.7322 48.832 69.3524 48.069 75.7741C47.306 82.1959 45.9708 90.8146 45.9708 90.8146C45.9708 90.8146 41.7743 89.1247 39.4853 89.6317C37.1962 90.1386 38.7223 79.323 38.7223 79.323C38.7223 79.323 20.0287 87.2657 18.312 86.2518C16.5952 85.2378 16.2137 78.1401 16.2137 78.1401L20.9825 77.2951Z" fill="#2F2E41"/>
<path opacity="0.1" d="M20.9825 77.2951H26.3235L39.4853 72.7322C39.4853 72.7322 48.832 69.3524 48.069 75.7741C47.306 82.1959 45.9708 90.8146 45.9708 90.8146C45.9708 90.8146 41.7743 89.1247 39.4853 89.6317C37.1962 90.1386 38.7223 79.323 38.7223 79.323C38.7223 79.323 20.0287 87.2657 18.312 86.2518C16.5952 85.2378 16.2137 78.1401 16.2137 78.1401L20.9825 77.2951Z" fill="black"/>
<path d="M29.3973 62.4767L35.861 70.7043L50.9303 81.8579C50.9303 81.8579 64.855 84.7308 62.9475 86.7588C61.04 88.7867 49.4043 84.7308 49.4043 84.7308C49.4043 84.7308 32.046 73.5772 31.4738 72.7322C30.9015 71.8873 24.6068 63.9446 24.6068 63.9446L29.3973 62.4767Z" fill="#A0616A"/>
<path opacity="0.1" d="M29.3973 62.4767L35.861 70.7043L50.9303 81.8579C50.9303 81.8579 64.855 84.7308 62.9475 86.7588C61.04 88.7867 49.4043 84.7308 49.4043 84.7308C49.4043 84.7308 32.046 73.5772 31.4738 72.7322C30.9015 71.8873 24.6068 63.9446 24.6068 63.9446L29.3973 62.4767Z" fill="black"/>
<path d="M25.5605 55.8328L29.757 63.0996C29.757 63.0996 28.8033 66.6485 27.2773 66.9864C25.7512 67.3244 19.2657 62.5926 19.2657 62.5926L25.5605 55.8328Z" fill="#D0CDE1"/>
<path opacity="0.1" d="M25.5605 55.8328L29.757 63.0996C29.757 63.0996 28.8033 66.6485 27.2773 66.9864C25.7512 67.3244 19.2657 62.5926 19.2657 62.5926L25.5605 55.8328Z" fill="black"/>
<path d="M76.756 73.5326L77.9956 78.0628C78.0095 78.1133 78.0073 78.1663 77.9894 78.2157L72.3663 93.7839C72.344 93.8455 72.2986 93.8986 72.2375 93.9341C72.1764 93.9697 72.1035 93.9856 72.0308 93.9792C71.958 93.9729 71.89 93.9446 71.8379 93.8992C71.7859 93.8538 71.753 93.7939 71.7448 93.7296L70.9669 87.6649C70.9617 87.6246 70.9664 87.5838 70.9805 87.5452L76.142 73.5116C76.1635 73.4531 76.206 73.4024 76.263 73.3672C76.3201 73.332 76.3885 73.3142 76.458 73.3166C76.5274 73.3189 76.5941 73.3413 76.6479 73.3803C76.7017 73.4193 76.7397 73.4728 76.756 73.5326Z" fill="#2F2E41"/>
<path d="M76.3001 73.9152L77.4445 77.8021L72.485 91.9976L71.3405 87.6037L76.3001 73.9152Z" fill="#F2F2F2"/>
<path d="M51.3118 95.0395C51.5025 95.5465 71.1498 94.8705 71.3405 94.7015C71.5068 94.4899 71.6475 94.2633 71.7602 94.0255C71.9395 93.6875 72.1035 93.3495 72.1035 93.3495L71.3405 87.8775L51.884 87.2657C51.884 87.2657 51.3976 91.9029 51.2984 94.0255C51.2736 94.5612 51.2736 94.9381 51.3118 95.0395Z" fill="#2F2E41"/>
<path opacity="0.1" d="M68.8608 88.6178L69.2422 93.3496H60.6585V88.6178H68.8608Z" fill="black"/>
<path opacity="0.1" d="M57.7973 90.1386L57.8485 90.1296L57.6066 92.1666H52.8378V90.1386H57.7973Z" fill="black"/>
<path opacity="0.1" d="M51.3118 95.0395C51.5025 95.5465 71.1498 94.8705 71.3405 94.7015C71.5068 94.4899 71.6475 94.2633 71.7602 94.0255H51.2984C51.2736 94.5612 51.2736 94.9381 51.3118 95.0395Z" fill="black"/>
<path d="M28.4218 53.4669C33.1624 53.4669 37.0055 50.0622 37.0055 45.8622C37.0055 41.6622 33.1624 38.2574 28.4218 38.2574C23.6811 38.2574 19.838 41.6622 19.838 45.8622C19.838 50.0622 23.6811 53.4669 28.4218 53.4669Z" fill="#A0616A"/>
<path d="M27.8495 52.6219C27.8495 52.6219 24.9883 57.0158 24.416 59.3817C23.8438 61.7476 15.8323 54.6499 15.8323 54.6499L14.7831 52.1995C14.7831 52.1995 22.3178 49.0731 21.7455 46.5382C21.1733 44.0032 27.8495 52.6219 27.8495 52.6219Z" fill="#A0616A"/>
<path d="M29.3755 65.8035L37.1963 74.9292L55.8898 87.2657C55.8898 87.2657 69.433 89.8007 66.381 91.6596C63.329 93.5185 54.5545 89.9697 54.5545 89.9697C54.5545 89.9697 35.6703 81.013 31.6645 77.2951C27.6588 73.5772 20.2195 67.3244 20.2195 67.3244L29.3755 65.8035Z" fill="#A0616A"/>
<path d="M18.8842 79.999L21.1733 83.2099L34.8342 79.4022C37.8317 78.5668 41.1185 78.8742 43.7771 80.3581C46.1615 81.6889 47.6875 83.8013 44.254 86.9277C37.387 93.1805 32.809 89.8006 32.809 89.8006C32.809 89.8006 9.72825 99.4333 5.91325 94.7015C2.09825 89.9696 1.9075 87.6037 1.9075 87.6037C1.9075 87.6037 16.5952 79.492 18.8842 79.999Z" fill="#2F2E41"/>
<path d="M47.4968 91.1526C47.4968 91.1526 53.6008 94.7015 46.3523 96.3914C39.1038 98.0814 33.7628 95.7154 33.7628 95.7154C33.7628 95.7154 27.468 95.7154 27.468 92.8425C27.468 89.9696 29.5663 89.6317 29.5663 89.6317L36.0518 90.4766C36.0518 90.4766 43.8725 88.6177 47.4968 91.1526Z" fill="#D0CDE1"/>
<path d="M35.4634 43.9491C36.0476 44.1799 36.627 44.453 37.2622 44.52C37.8973 44.587 38.6206 44.3905 38.9212 43.8902C39.0835 43.62 39.1021 43.3022 39.1097 42.9962C39.1326 42.0682 39.0569 41.065 38.3931 40.3469C37.9707 39.8898 37.354 39.6017 36.9167 39.1557C36.6035 38.8362 36.395 38.4489 36.1704 38.0754C35.32 36.6603 34.0609 35.3004 32.311 34.8925C31.5803 34.7221 30.8137 34.7304 30.0582 34.7399L25.6514 34.7949C24.9383 34.8039 24.2142 34.8142 23.5315 34.9971C22.1131 35.377 21.0803 36.4338 20.1345 37.4444C19.4268 38.2005 18.7173 38.9644 18.1862 39.8265C17.4248 41.0847 17.0398 42.4946 17.0679 43.922C17.062 44.288 17.1153 44.653 17.2263 45.0056C17.3561 45.3291 17.517 45.6421 17.7071 45.9412C18.5335 47.3793 19.0242 49.1756 18.0935 50.5628C19.7102 49.9777 21.3098 49.2105 22.3763 47.9853C22.8534 47.4372 23.2276 46.7956 23.8634 46.3933C24.4992 45.9911 25.5352 45.9562 25.9431 46.5465C26.0834 46.7853 26.1556 47.0509 26.1535 47.3201C26.1833 47.7631 26.1825 48.2233 26.3945 48.6255C26.6065 49.0276 27.1117 49.3521 27.5939 49.2318C28.4244 49.0245 28.3449 47.8952 28.9846 47.3823C29.4704 46.9927 30.2198 47.0672 30.844 46.8903C31.5711 46.6843 32.1167 46.1262 32.4276 45.5084C32.6639 45.0388 32.6605 43.8101 33.1076 43.5558C33.6684 43.2369 34.9436 43.7439 35.4634 43.9491Z" fill="#2F2E41"/>
<path d="M14.1017 51.3978C14.4879 51.3066 14.8944 51.3075 15.2801 51.4005C16.5045 51.6917 19.2495 52.4627 19.838 53.6359C20.601 55.1569 23.2715 57.5228 23.2715 57.5228C23.2715 57.5228 26.8958 60.7337 26.1328 62.9306C25.3698 65.1275 22.5085 67.6624 22.5085 67.6624C22.5085 67.6624 23.2715 78.1401 19.4565 80.844C15.6415 83.5479 14.1155 81.6889 14.1155 84.2239C14.1155 86.7588 2.289 94.7015 0 89.8007C0 89.8007 1.1445 80.675 0.763001 77.4641C0.387002 74.2995 0.937443 54.5553 14.1017 51.3978Z" fill="#D0CDE1"/>
<path d="M20.2195 55.6638C20.2195 55.6638 31.8553 63.2686 29.757 66.4794C29.757 66.4794 22.6993 69.5213 21.1733 69.3523C19.6473 69.1834 13.734 63.2686 12.208 62.7616C10.682 62.2546 9.919 53.1289 20.2195 55.6638Z" fill="#D0CDE1"/>
<path d="M72.2057 38.8471C77.41 38.8471 81.6289 35.1094 81.6289 30.4986C81.6289 25.8879 77.41 22.1501 72.2057 22.1501C67.0014 22.1501 62.7825 25.8879 62.7825 30.4986C62.7825 35.1094 67.0014 38.8471 72.2057 38.8471Z" fill="#F2F2F2"/>
<path d="M150.037 19.6562H97.2305V9.86676H150.037V19.6562ZM97.4631 19.4501H149.804V10.0728H97.4631V19.4501Z" fill="#3F3D56"/>
<path d="M146.198 11.8246H93.6248V21.408H146.198V11.8246Z" fill="#6C63FF"/>
<path d="M60.3906 2.67923C60.8403 2.67923 61.2048 2.35628 61.2048 1.9579C61.2048 1.55951 60.8403 1.23656 60.3906 1.23656C59.9409 1.23656 59.5764 1.55951 59.5764 1.9579C59.5764 2.35628 59.9409 2.67923 60.3906 2.67923Z" fill="#6C63FF"/>
<path d="M63.1821 2.67923C63.6318 2.67923 63.9963 2.35628 63.9963 1.9579C63.9963 1.55951 63.6318 1.23656 63.1821 1.23656C62.7324 1.23656 62.3679 1.55951 62.3679 1.9579C62.3679 2.35628 62.7324 2.67923 63.1821 2.67923Z" fill="#6C63FF"/>
<path d="M65.9736 2.67923C66.4233 2.67923 66.7878 2.35628 66.7878 1.9579C66.7878 1.55951 66.4233 1.23656 65.9736 1.23656C65.524 1.23656 65.1594 1.55951 65.1594 1.9579C65.1594 2.35628 65.524 2.67923 65.9736 2.67923Z" fill="#6C63FF"/>
<path d="M156 56.4698H58.0643V0H156V56.4698ZM58.297 56.2637H155.767V0.206095H58.297V56.2637Z" fill="#3F3D56"/>
<path d="M155.884 3.12595H58.1807V3.33204H155.884V3.12595Z" fill="#3F3D56"/>
<path d="M60.6232 2.47313C60.4392 2.47313 60.2593 2.42478 60.1063 2.33419C59.9532 2.24361 59.834 2.11486 59.7636 1.96422C59.6931 1.81359 59.6747 1.64783 59.7106 1.48792C59.7465 1.32801 59.8351 1.18112 59.9653 1.06583C60.0954 0.950535 60.2612 0.872021 60.4417 0.840212C60.6222 0.808403 60.8093 0.824729 60.9793 0.887124C61.1493 0.949519 61.2947 1.05518 61.3969 1.19075C61.4992 1.32632 61.5537 1.4857 61.5537 1.64875C61.5534 1.86731 61.4553 2.07685 61.2809 2.23139C61.1064 2.38594 60.8699 2.47287 60.6232 2.47313ZM60.6232 1.03047C60.4852 1.03047 60.3503 1.06673 60.2355 1.13467C60.1207 1.2026 60.0313 1.29917 59.9785 1.41214C59.9257 1.52512 59.9118 1.64944 59.9388 1.76937C59.9657 1.88931 60.0321 1.99947 60.1297 2.08594C60.2273 2.17241 60.3517 2.2313 60.4871 2.25515C60.6225 2.27901 60.7628 2.26676 60.8903 2.21997C61.0178 2.17317 61.1268 2.09392 61.2035 1.99225C61.2802 1.89057 61.3211 1.77103 61.3211 1.64875C61.3209 1.48483 61.2473 1.32768 61.1165 1.21177C60.9856 1.09586 60.8082 1.03066 60.6232 1.03047V1.03047Z" fill="#3F3D56"/>
<path d="M63.4148 2.47313C63.2307 2.47313 63.0508 2.42478 62.8978 2.33419C62.7448 2.24361 62.6255 2.11486 62.5551 1.96422C62.4847 1.81359 62.4662 1.64783 62.5021 1.48792C62.538 1.32801 62.6267 1.18112 62.7568 1.06583C62.8869 0.950535 63.0527 0.872021 63.2332 0.840212C63.4137 0.808403 63.6008 0.824729 63.7708 0.887124C63.9409 0.949519 64.0862 1.05518 64.1884 1.19075C64.2907 1.32632 64.3453 1.4857 64.3453 1.64875C64.345 1.86731 64.2469 2.07685 64.0724 2.23139C63.898 2.38594 63.6615 2.47287 63.4148 2.47313V2.47313ZM63.4148 1.03047C63.2767 1.03047 63.1418 1.06673 63.027 1.13467C62.9123 1.2026 62.8228 1.29917 62.77 1.41214C62.7172 1.52512 62.7034 1.64944 62.7303 1.76937C62.7572 1.88931 62.8237 1.99947 62.9213 2.08594C63.0189 2.17241 63.1432 2.2313 63.2786 2.25515C63.414 2.27901 63.5543 2.26676 63.6818 2.21997C63.8093 2.17317 63.9183 2.09392 63.995 1.99225C64.0717 1.89057 64.1126 1.77103 64.1126 1.64875C64.1124 1.48483 64.0388 1.32768 63.908 1.21177C63.7772 1.09586 63.5998 1.03066 63.4148 1.03047V1.03047Z" fill="#3F3D56"/>
<path d="M66.2063 2.47313C66.0222 2.47313 65.8423 2.42478 65.6893 2.33419C65.5363 2.24361 65.417 2.11486 65.3466 1.96423C65.2762 1.81359 65.2577 1.64783 65.2936 1.48792C65.3295 1.32801 65.4182 1.18112 65.5483 1.06583C65.6784 0.950535 65.8442 0.872021 66.0247 0.840212C66.2052 0.808403 66.3923 0.824728 66.5624 0.887123C66.7324 0.949518 66.8777 1.05518 66.98 1.19075C67.0822 1.32632 67.1368 1.4857 67.1368 1.64875C67.1365 1.86731 67.0384 2.07684 66.8639 2.23139C66.6895 2.38594 66.453 2.47287 66.2063 2.47313V2.47313ZM66.2063 1.03047C66.0682 1.03047 65.9333 1.06673 65.8185 1.13466C65.7038 1.2026 65.6143 1.29916 65.5615 1.41214C65.5087 1.52512 65.4949 1.64943 65.5218 1.76937C65.5487 1.8893 65.6152 1.99947 65.7128 2.08594C65.8104 2.17241 65.9347 2.23129 66.0701 2.25515C66.2055 2.27901 66.3458 2.26676 66.4733 2.21997C66.6009 2.17317 66.7098 2.09392 66.7865 1.99225C66.8632 1.89057 66.9041 1.77103 66.9041 1.64875C66.9039 1.48483 66.8303 1.32768 66.6995 1.21177C66.5687 1.09586 66.3913 1.03066 66.2063 1.03047V1.03047Z" fill="#3F3D56"/>
<path d="M88.9718 3.22897H88.7392V56.4467H88.9718V3.22897Z" fill="#3F3D56"/>
<path d="M116.946 29.3942H99.8476V31.4551H116.946V29.3942Z" fill="#F2F2F2"/>
<path d="M143.814 29.3942H126.716V31.4551H143.814V29.3942Z" fill="#F2F2F2"/>
<path d="M117.992 30.5277H100.662V28.2607H117.992V30.5277ZM100.894 30.3216H117.76V28.4668H100.894V30.3216Z" fill="#3F3D56"/>
<path d="M116.946 45.3665H99.8476V47.4274H116.946V45.3665Z" fill="#F2F2F2"/>
<path d="M117.992 46.5H100.662V44.233H117.992V46.5ZM100.894 46.2939H117.76V44.4391H100.894V46.2939Z" fill="#3F3D56"/>
<path d="M143.872 37.1743H99.9057V39.2352H143.872V37.1743Z" fill="#F2F2F2"/>
<path d="M144.919 38.5139H100.72V36.2468H144.919V38.5139ZM100.953 38.3078H144.686V36.4529H100.953V38.3078Z" fill="#3F3D56"/>
<path d="M144.861 30.5277H127.53V28.2607H144.861V30.5277ZM127.763 30.3216H144.628V28.4668H127.763V30.3216Z" fill="#3F3D56"/>
<path d="M73.8004 36.6637C71.908 36.6637 70.0581 36.1665 68.4846 35.2351C66.9111 34.3036 65.6847 32.9797 64.9605 31.4307C64.2363 29.8818 64.0468 28.1774 64.416 26.533C64.7852 24.8886 65.6965 23.3782 67.0346 22.1927C68.3728 21.0072 70.0777 20.1998 71.9337 19.8727C73.7898 19.5456 75.7136 19.7135 77.462 20.3551C79.2103 20.9967 80.7047 22.0832 81.7561 23.4772C82.8074 24.8713 83.3686 26.5102 83.3686 28.1868C83.3657 30.4342 82.3567 32.5889 80.563 34.178C78.7692 35.7672 76.3372 36.6611 73.8004 36.6637ZM73.8004 19.9667C71.9653 19.9667 70.1715 20.4488 68.6457 21.352C67.1199 22.2553 65.9306 23.5391 65.2284 25.0411C64.5261 26.5431 64.3424 28.1959 64.7004 29.7904C65.0584 31.3849 65.9421 32.8496 67.2397 33.9992C68.5373 35.1488 70.1905 35.9317 71.9903 36.2488C73.7901 36.566 75.6556 36.4032 77.351 35.7811C79.0464 35.1589 80.4955 34.1053 81.515 32.7536C82.5345 31.4018 83.0786 29.8125 83.0786 28.1868C83.0759 26.0074 82.0974 23.9181 80.358 22.377C78.6186 20.836 76.2603 19.9692 73.8004 19.9667Z" fill="#3F3D56"/>
<path d="M149.476 95.6167H108.449V95.8736H149.476V95.6167Z" fill="#3F3D56"/>
</g>
<defs>
<clipPath id="clip0">
<rect width="156" height="97" fill="white"/>
</clipPath>
</defs>
</svg>
